# xmcd CD database file
#
# Track frame offsets:
#	150
#	22725
#	41915
#	66382
#	84200
#	103385
#	122470
#	140460
#	141895
#	158962
#	183362
#	199715
#
# Disc length: 2778 seconds
#
# Revision: 1
# Processed by: cddbd v1.5.2PL0 Copyright (c) Steve Scherf et al.
# Submitted via: CDex 1.70beta3
#
DISCID=a40ad80c
DTITLE=石川知亜紀 - Inner Garden
DYEAR=2003
DGENRE=Pop
TTITLE0=Cross
TTITLE1=I LOVE ME
TTITLE2=東京のパノラマ
TTITLE3=EDEN
TTITLE4=傘に入れてよ
TTITLE5=夢を見ていた
TTITLE6=yesterday
TTITLE7=マナ
TTITLE8=Like an angel
TTITLE9=雨の日に恋をした
TTITLE10=The other life
TTITLE11=garden
EXTD=YEAR: 2003
EXTT0=
EXTT1=
EXTT2=
EXTT3=
EXTT4=
EXTT5=
EXTT6=
EXTT7=
EXTT8=
EXTT9=
EXTT10=
EXTT11=
PLAYORDER=
